P3
15 17
255
74
57
106
82
65
106
82
57
106
74
49
98
74
65
106
74
57
98
82
65
115
65
49
98
82
57
115
90
65
115
74
49
106
0
0
0
0
0
0
0
0
0
0
0
0
148
131
164
255
255
255
65
49
98
0
0
8
90
74
115
197
189
205
115
98
139
82
57
106
230
230
230
164
156
172
74
57
106
8
8
8
57
57
57
90
90
90
82
65
106
156
131
115
82
65
115
230
172
106
139
148
172
205
148
98
115
106
148
238
197
115
156
172
180
74
57
106
180
148
106
98
90
131
131
131
164
205
172
106
222
156
98
197
131
90
164
106
41
164
98
41
156
98
41
172
106
32
156
106
41
156
98
49
164
106
32
172
98
32
164
98
49
164
98
32
164
106
49
156
106
49
156
98
57
156
106
32
172
106
41
115
49
41
139
65
65
90
32
32
156
90
32
131
57
57
139
74
32
106
41
41
123
49
49
82
32
32
131
65
65
98
32
32
131
65
32
164
98
32
98
41
41
148
82
32
74
57
106
98
90
131
65
49
90
82
65
106
106
106
148
57
41
74
74
65
106
90
82
123
74
57
98
65
57
90
82
57
106
82
74
115
115
115
156
57
49
82
90
74
115
90
82
123
82
65
106
98
98
139
74
57
106
98
106
139
98
90
131
90
74
123
90
90
131
82
57
106
82
74
115
98
115
139
82
65
115
90
74
115
98
98
131
106
106
148
106
41
41
131
57
57
82
32
32
148
82
32
115
49
49
74
24
24
90
32
32
164
106
32
131
65
65
123
49
49
98
32
32
139
74
32
65
24
24
123
57
57
98
41
41
106
90
131
156
156
156
74
57
106
197
164
98
131
131
156
82
65
106
156
131
106
148
164
180
115
106
148
213
189
106
164
180
197
139
148
172
172
148
115
90
74
123
82
57
106
222
164
98
189
123
82
246
189
106
205
139
90
164
106
74
238
172
106
238
205
115
213
148
98
197
139
82
230
164
98
148
90
65
180
123
82
230
180
98
213
164
90
246
197
115
131
90
57
156
106
65
106
82
57
148
98
57
90
74
49
115
82
57
139
98
57
123
90
57
139
90
57
156
115
65
156
98
57
131
98
57
123
82
57
148
90
65
98
82
49
98
90
131
172
197
197
74
57
98
123
139
164
197
205
197
82
65
115
65
49
90
139
172
189
115
115
156
57
41
82
90
74
123
164
189
197
106
98
139
74
65
106
131
156
180
189
164
115
123
139
156
222
180
98
172
123
82
156
156
164
205
148
90
230
197
106
98
123
139
148
106
82
213
164
90
189
139
82
131
156
164
172
164
148
230
180
98
197
180
139
205
148
41
164
98
16
230
172
57
189
123
16
148
82
24
213
156
32
230
180
65
222
164
57
180
106
24
205
139
16
156
82
24
213
148
24
222
172
65
238
172
41
197
131
16
90
74
57
148
90
49
74
57
98
164
115
65
123
82
41
57
41
74
82
65
106
65
49
90
131
82
49
115
65
41
180
123
74
156
106
57
49
32
65
139
90
49
90
74
123
230
222
238
123
123
156
255
255
255
172
172
189
115
98
148
148
139
172
213
205
205
246
246
246
180
189
189
238
230
238
197
172
197
139
106
131
197
205
197
139
131
164
156
148
172
139
123
123
82
65
106
222
172
98
148
164
172
238
197
115
197
139
98
115
106
148
131
139
164
74
57
106
172
148
115
98
82
131
164
180
197
222
148
98
238
172
106
189
164
123
