P3
# Created by GIMP version 2.10.14 PNM plug-in
15 17
255
60
110
175
64
112
176
59
112
176
55
107
175
62
112
176
59
110
176
65
114
176
54
107
175
61
111
176
65
114
177
55
107
175
0
0
0
0
0
0
0
0
0
0
0
0
148
131
164
255
255
255
54
107
175
0
0
8
67
119
177
197
189
205
85
126
179
59
112
176
230
230
230
164
156
172
60
110
175
8
8
8
54
107
175
75
120
177
64
112
176
156
131
115
65
114
176
230
172
106
139
148
172
205
148
98
107
106
148
238
197
115
156
172
180
60
110
175
180
148
106
91
90
131
131
131
164
205
172
106
222
156
98
197
131
90
164
106
41
164
98
41
156
98
41
172
106
32
156
106
41
156
98
49
164
106
32
172
98
32
164
98
49
164
98
32
164
106
49
156
106
49
156
98
57
156
106
32
172
106
41
115
49
41
139
65
65
90
32
32
156
90
32
131
57
57
139
74
32
106
41
41
123
49
49
82
32
32
131
65
65
98
32
32
131
65
32
164
98
32
98
41
41
148
82
32
60
110
175
77
122
179
52
106
175
64
112
176
87
127
180
50
106
171
62
112
176
74
120
179
59
110
176
56
109
176
59
112
176
69
116
176
94
131
179
51
105
175
67
119
177
74
120
179
64
112
176
81
124
179
60
110
175
86
126
179
77
122
179
70
117
177
77
121
177
59
112
176
69
116
176
90
129
179
65
114
176
67
119
177
81
124
179
87
127
180
106
41
41
131
57
57
82
32
32
148
82
32
115
49
49
74
24
24
90
32
32
164
106
32
131
65
65
123
49
49
98
32
32
139
74
32
65
24
24
123
57
57
98
41
41
91
90
131
156
156
156
60
110
175
197
164
98
131
131
156
64
112
176
156
131
106
148
164
180
107
106
148
213
189
106
164
180
197
139
148
172
172
148
115
70
117
177
59
112
176
222
164
98
189
123
82
246
189
106
205
139
90
164
106
74
238
172
106
238
205
115
213
148
98
197
139
82
230
164
98
148
90
65
180
123
82
230
180
98
213
164
90
246
197
115
131
90
57
156
106
65
106
82
57
148
98
57
90
74
49
115
82
57
139
98
57
123
90
57
139
90
57
156
115
65
156
98
57
131
98
57
123
82
57
148
90
65
98
82
49
77
122
179
172
197
197
59
110
176
105
137
180
197
205
197
65
114
176
52
106
175
139
172
189
94
131
179
50
106
171
70
117
177
164
189
197
84
125
179
62
112
176
115
144
180
189
164
115
123
139
156
222
180
98
172
123
82
156
156
164
205
148
90
230
197
106
98
123
139
148
106
82
213
164
90
189
139
82
131
156
164
172
164
148
230
180
98
197
180
139
186
153
114
145
106
80
211
177
133
169
130
96
129
91
70
194
161
118
213
184
138
203
169
128
158
115
88
184
146
107
135
92
72
192
154
114
205
176
133
216
178
132
176
138
102
90
74
57
148
90
49
59
110
176
164
115
65
123
82
41
50
106
171
64
112
176
52
106
175
131
82
49
115
65
41
180
123
74
156
106
57
50
100
164
139
90
49
70
117
177
230
222
238
123
123
156
255
255
255
172
172
189
115
98
148
148
139
172
213
205
205
246
246
246
180
189
189
238
230
238
197
172
197
139
106
131
197
205
197
139
131
164
156
148
172
139
123
123
64
112
176
222
172
98
148
164
172
238
197
115
197
139
98
107
106
148
131
139
164
60
110
175
172
148
115
83
82
131
164
180
197
222
148
98
238
172
106
189
164
123
