P3
# Created by GIMP version 2.10.14 PNM plug-in
15 17
255
0
0
81
0
0
85
0
0
82
0
0
78
0
0
85
0
0
81
0
0
86
0
0
76
0
0
82
0
0
86
0
0
78
0
0
0
0
0
0
0
0
0
0
0
0
148
131
164
255
255
255
0
0
76
0
0
8
0
0
89
197
189
205
0
0
97
0
0
82
230
230
230
164
156
172
0
0
81
8
8
8
57
57
57
90
90
90
0
0
85
109
88
77
0
0
86
230
149
106
89
100
124
205
128
98
78
73
102
238
174
115
99
122
131
0
0
81
180
134
106
66
62
90
86
87
117
205
154
106
222
133
98
197
111
90
164
106
41
164
98
41
156
98
41
172
106
32
156
106
41
156
98
49
164
106
32
172
98
32
164
98
49
164
98
32
164
106
49
156
106
49
156
98
57
156
106
32
172
106
41
115
49
41
139
65
65
90
32
32
156
90
32
131
57
57
139
74
32
106
41
41
123
49
49
82
32
32
131
65
65
98
32
32
131
65
32
164
98
32
98
41
41
148
82
32
0
0
81
0
0
94
0
0
76
0
0
85
0
0
98
0
0
70
0
0
85
0
0
92
0
0
81
0
0
80
0
0
82
0
0
89
0
0
99
0
0
74
0
0
89
0
0
92
0
0
85
0
0
96
0
0
81
0
0
97
0
0
94
0
0
89
0
0
94
0
0
82
0
0
89
0
0
99
0
0
86
0
0
89
0
0
96
0
0
98
106
41
41
131
57
57
82
32
32
148
82
32
115
49
49
74
24
24
90
32
32
164
106
32
131
65
65
123
49
49
98
32
32
139
74
32
65
24
24
123
57
57
98
41
41
72
62
90
107
107
107
0
0
81
197
146
98
87
88
109
0
0
85
108
89
72
93
114
132
78
73
102
213
169
106
96
125
151
89
100
124
172
138
115
0
0
89
0
0
82
222
141
98
189
103
82
246
163
106
205
118
90
164
90
74
238
148
106
238
182
115
213
127
98
197
118
82
230
140
98
148
75
65
180
105
82
230
156
98
213
141
90
246
173
115
131
90
57
156
106
65
106
82
57
148
98
57
90
74
49
115
82
57
139
98
57
123
90
57
139
90
57
156
115
65
156
98
57
131
98
57
123
82
57
148
90
65
98
82
49
0
0
94
104
149
147
0
0
81
0
0
102
130
147
129
0
0
86
0
0
76
82
125
143
0
0
99
0
0
70
0
0
89
96
140
151
0
0
96
0
0
85
23
23
103
189
150
115
82
96
109
222
157
98
172
107
82
105
105
114
205
127
90
230
174
106
67
85
95
148
94
82
213
141
90
189
119
82
86
110
117
172
160
148
230
156
98
197
169
139
205
148
41
164
98
16
230
172
57
189
123
16
148
82
24
213
156
32
230
180
65
222
164
57
180
106
24
205
139
16
156
82
24
213
148
24
222
172
65
238
172
41
197
131
16
90
74
57
148
90
49
0
0
81
164
115
65
123
82
41
0
0
70
0
0
85
0
0
76
131
82
49
115
65
41
180
123
74
156
106
57
0
0
60
139
90
49
0
0
89
230
222
238
123
123
156
255
255
255
172
172
189
115
98
148
148
139
172
213
205
205
246
246
246
180
189
189
238
230
238
197
172
197
139
106
131
197
205
197
139
131
164
156
148
172
96
84
84
0
0
85
222
149
98
96
115
124
238
174
115
197
121
98
78
73
102
86
94
117
0
0
81
172
138
115
66
56
90
96
125
151
222
125
98
238
148
106
189
152
123
