P3
# Created by GIMP version 2.10.18 PNM plug-in
15 17
255
20
19
20
19
19
20
20
19
20
19
18
19
19
19
20
18
18
19
20
20
21
19
19
20
21
20
22
20
20
21
20
19
21
0
0
0
0
0
0
0
0
0
0
0
0
236
236
236
255
255
255
19
19
20
0
0
8
20
20
21
243
243
243
23
22
24
20
19
20
249
249
249
237
237
237
20
19
20
8
8
8
13
13
14
16
16
17
19
19
20
201
127
228
20
20
21
227
169
249
203
129
230
222
165
243
201
127
228
229
170
251
203
129
230
20
19
20
218
162
238
199
126
225
203
128
230
222
165
243
226
168
247
221
164
242
139
80
161
140
80
162
138
79
159
142
81
164
137
79
159
138
79
159
139
80
161
142
82
165
139
80
162
140
80
162
139
80
161
137
79
159
138
79
159
137
79
159
142
81
164
209
155
229
212
157
232
207
154
227
214
159
234
211
157
231
212
157
232
208
155
228
210
156
230
206
153
226
211
157
231
208
154
227
211
157
231
215
160
236
208
154
227
213
158
233
20
19
20
22
22
23
18
17
18
19
19
20
24
24
25
16
16
17
19
19
20
21
21
22
18
18
19
17
17
18
20
19
20
20
20
21
25
25
26
17
16
17
20
20
21
21
21
22
19
19
20
23
23
24
20
19
20
23
22
24
22
22
23
21
21
22
22
22
23
20
19
20
20
20
21
22
22
23
20
20
21
20
20
21
22
21
23
24
24
25
208
155
228
211
157
231
206
153
226
213
158
233
209
155
229
206
153
226
207
154
227
215
160
236
211
157
231
210
156
230
208
154
227
212
157
232
205
152
225
210
156
230
208
154
227
199
126
225
199
126
226
20
19
20
221
164
242
201
127
228
19
19
20
201
127
228
204
129
231
201
127
228
224
166
245
206
131
234
203
129
230
217
161
237
21
21
22
20
19
20
226
168
247
219
163
240
231
171
253
222
165
243
215
160
236
229
170
251
229
170
251
224
166
245
221
164
242
227
169
249
213
158
233
218
162
238
227
169
249
224
166
245
231
171
253
131
75
151
137
79
159
125
72
145
135
78
157
121
70
141
127
73
147
132
76
153
128
74
149
133
76
154
136
78
158
138
79
159
130
75
151
129
74
149
135
78
157
123
71
142
22
22
23
205
130
233
18
18
19
25
25
26
206
131
234
20
20
21
18
17
18
206
130
233
25
25
26
17
17
18
21
21
22
206
130
233
23
23
24
19
19
20
27
27
28
219
163
240
201
127
228
226
168
247
217
161
237
201
127
228
222
165
243
227
169
249
199
126
225
213
158
233
224
166
245
219
163
240
201
127
228
217
161
237
227
169
249
221
164
242
222
165
243
215
160
236
227
169
249
219
163
240
213
158
233
224
166
245
227
169
249
226
168
247
218
162
238
222
165
243
214
159
234
224
166
245
226
168
247
229
170
251
221
164
242
121
70
141
136
78
157
18
18
19
138
79
160
129
74
149
16
16
17
19
19
20
18
17
18
131
75
152
128
74
149
143
82
165
137
79
159
15
15
16
133
76
154
21
21
22
251
251
251
234
234
234
255
255
255
240
240
240
233
233
233
237
237
237
245
245
245
253
253
253
240
240
240
251
251
251
242
242
242
232
232
232
243
243
243
236
236
236
237
237
237
198
126
225
19
19
20
226
168
247
202
128
229
229
170
251
221
164
242
201
127
228
202
128
229
20
19
20
217
161
237
199
126
226
206
131
234
226
168
247
229
170
251
219
163
240
