P3
# Created by GIMP version 2.10.18 PNM plug-in
15 17
255
35
96
32
39
107
36
36
98
33
31
86
29
38
104
35
35
95
32
39
108
36
30
83
28
36
99
33
40
110
37
32
87
29
0
0
0
0
0
0
0
0
0
0
0
0
83
196
78
255
255
255
30
83
28
0
0
8
44
120
40
168
219
167
57
156
52
36
98
33
219
242
217
115
207
111
35
96
32
8
8
8
57
57
57
90
90
90
39
107
36
156
131
115
39
108
36
230
172
106
99
201
94
205
148
98
60
166
55
238
197
115
130
212
126
35
96
32
180
148
106
52
141
47
78
194
72
205
172
106
222
156
98
197
131
90
164
106
41
164
98
41
156
98
41
172
106
32
156
106
41
156
98
49
164
106
32
172
98
32
164
98
49
164
98
32
164
106
49
156
106
49
156
98
57
156
106
32
172
106
41
115
49
41
139
65
65
90
32
32
156
90
32
131
57
57
139
74
32
106
41
41
123
49
49
82
32
32
131
65
65
98
32
32
131
65
32
164
98
32
98
41
41
148
82
32
35
96
32
52
141
47
30
83
28
39
107
36
59
163
54
25
70
23
38
104
35
47
129
43
35
95
32
33
91
30
36
98
33
43
117
39
64
176
59
29
79
26
44
120
40
47
129
43
39
107
36
70
139
86
35
96
32
58
159
53
52
141
47
44
121
40
58
133
66
36
98
33
43
117
39
62
169
56
39
108
36
44
120
40
69
139
82
59
163
54
106
41
41
131
57
57
82
32
32
148
82
32
115
49
49
74
24
24
90
32
32
164
106
32
131
65
65
123
49
49
98
32
32
139
74
32
65
24
24
123
57
57
98
41
41
52
144
48
118
200
115
35
96
32
197
164
98
77
194
71
39
107
36
156
131
106
119
208
115
60
166
55
213
189
106
142
216
139
99
201
94
172
148
115
44
121
40
36
98
33
222
164
98
189
123
82
246
189
106
205
139
90
164
106
74
238
172
106
238
205
115
213
148
98
197
139
82
230
164
98
148
90
65
180
123
82
230
180
98
213
164
90
246
197
115
131
90
57
156
106
65
106
82
57
148
98
57
90
74
49
115
82
57
139
98
57
123
90
57
139
90
57
156
115
65
156
98
57
131
98
57
123
82
57
148
90
65
98
82
49
52
141
47
163
223
160
35
95
32
83
196
78
179
229
177
39
108
36
30
83
28
125
210
121
64
176
59
26
71
24
44
121
40
152
219
148
56
153
51
38
104
35
105
203
100
189
164
115
83
196
77
222
180
98
172
123
82
112
206
107
205
148
90
230
197
106
65
178
59
148
106
82
213
164
90
189
139
82
104
203
99
172
164
148
230
180
98
197
180
139
205
148
41
164
98
16
230
172
57
189
123
16
148
82
24
213
156
32
230
180
65
222
164
57
180
106
24
205
139
16
156
82
24
213
148
24
222
172
65
238
172
41
197
131
16
90
74
57
148
90
49
35
95
32
164
115
65
123
82
41
25
70
23
39
107
36
30
83
28
131
82
49
115
65
41
180
123
74
156
106
57
21
57
19
139
90
49
44
121
40
211
240
210
78
181
83
255
255
255
136
214
132
57
157
52
92
199
87
189
228
186
242
250
242
156
221
153
222
244
221
197
172
197
139
106
131
179
229
177
80
195
75
104
203
99
139
123
123
39
107
36
222
172
98
118
208
114
238
197
115
197
139
98
60
166
55
86
197
81
35
96
32
172
148
115
48
133
44
142
216
139
222
148
98
238
172
106
189
164
123
