P3
# Created by GIMP version 2.10.14 PNM plug-in
15 17
255
71
220
220
78
222
222
73
221
221
65
219
219
76
221
221
70
220
220
79
222
222
63
219
219
73
221
221
80
222
222
65
219
219
0
0
0
0
0
0
0
0
0
0
0
0
148
131
164
255
255
255
63
219
219
0
0
8
87
223
223
197
189
205
110
228
228
73
221
221
230
230
230
164
156
172
71
220
220
8
8
8
57
57
57
90
90
90
78
222
222
179
209
209
79
222
222
222
222
222
187
214
214
196
196
196
164
200
200
244
244
244
200
222
222
71
220
220
190
190
190
153
193
193
178
208
208
215
215
215
207
207
207
181
181
181
19
103
103
18
98
98
18
97
97
20
104
104
19
102
102
18
97
97
19
103
103
19
99
99
19
99
99
18
98
98
20
104
104
19
102
102
18
97
97
19
101
101
20
105
105
228
228
228
237
237
237
218
218
218
246
246
246
232
232
232
239
239
239
225
225
225
230
230
230
218
218
218
237
237
237
221
221
221
235
235
235
251
251
251
223
223
223
244
244
244
71
220
220
100
226
226
62
219
219
78
222
222
114
228
228
54
217
217
76
221
221
93
224
224
70
220
220
68
220
220
73
221
221
85
223
223
123
230
230
60
218
218
87
223
223
93
224
224
78
222
222
106
227
227
71
220
220
112
228
228
100
226
226
87
223
223
99
225
225
73
221
221
85
223
223
118
229
229
79
222
222
87
223
223
106
227
227
114
228
228
225
225
225
232
232
232
218
218
218
244
244
244
228
228
228
214
214
214
218
218
218
253
253
253
237
237
237
230
230
230
221
221
221
239
239
239
214
214
214
232
232
232
223
223
223
154
194
194
192
217
217
71
220
220
207
207
207
177
208
208
78
222
222
179
209
209
196
219
219
164
200
200
230
230
230
206
225
225
187
214
214
189
189
189
87
223
223
73
221
221
213
213
213
171
171
171
239
239
239
189
189
189
151
151
151
223
223
223
251
251
251
198
198
198
187
187
187
215
215
215
134
134
134
169
169
169
227
227
227
210
210
210
246
246
246
97
97
97
115
115
115
86
86
86
107
107
107
76
76
76
88
88
88
105
105
105
95
95
95
99
99
99
121
121
121
108
108
108
103
103
103
90
90
90
101
101
101
84
84
84
100
226
226
215
231
231
70
220
220
141
234
234
222
235
235
79
222
222
62
219
219
198
221
221
123
230
230
55
217
217
87
223
223
210
228
228
108
227
227
76
221
221
156
236
236
206
206
206
180
210
210
226
226
226
168
168
168
193
217
217
196
196
196
241
241
241
168
203
203
148
148
148
210
210
210
184
184
184
189
215
215
204
204
204
227
227
227
222
222
222
237
237
237
217
217
217
247
247
247
227
227
227
211
211
211
240
240
240
250
250
250
244
244
244
221
221
221
234
234
234
212
212
212
237
237
237
247
247
247
248
248
248
231
231
231
13
69
69
17
90
90
70
220
220
21
110
110
15
80
80
54
217
217
78
222
222
62
219
219
15
82
82
13
67
67
22
119
119
19
103
103
46
216
216
17
88
88
87
223
223
230
222
238
123
123
156
255
255
255
172
172
189
115
98
148
148
139
172
213
205
205
246
246
246
180
189
189
238
230
238
197
172
197
139
106
131
197
205
197
139
131
164
156
148
172
174
206
206
78
222
222
219
219
219
195
219
219
244
244
244
187
187
187
164
200
200
181
210
210
71
220
220
189
189
189
150
191
191
206
225
225
201
201
201
223
223
223
207
207
207
