P3
# Created by GIMP version 2.10.14 PNM plug-in
15 17
255
125
149
80
125
149
91
114
149
80
116
157
78
136
149
91
129
157
91
119
140
79
131
157
78
109
140
69
109
140
79
114
149
69
255
255
255
255
255
255
255
255
255
255
255
255
82
91
73
0
0
0
131
157
78
255
255
255
120
140
90
48
50
46
102
116
82
114
149
80
25
25
25
79
83
75
125
149
80
247
247
247
198
198
198
165
165
165
125
149
91
73
89
99
119
140
79
12
18
25
83
79
67
24
38
50
101
107
77
8
11
17
75
68
65
125
149
80
44
57
75
116
124
85
91
91
73
26
34
50
15
25
33
26
45
58
23
55
91
23
60
91
26
63
99
15
47
83
26
58
99
31
68
99
18
50
91
15
51
83
27
64
91
18
55
91
27
59
91
31
63
99
36
73
99
20
52
99
20
52
83
50
130
140
54
116
116
59
165
165
20
62
99
54
124
124
27
81
116
58
149
149
53
132
132
68
173
173
62
124
124
51
157
157
30
92
124
18
55
91
66
157
157
23
71
107
125
149
80
116
124
85
136
165
90
125
149
91
107
107
77
142
181
100
136
149
91
123
132
88
129
157
91
151
165
105
114
149
80
130
140
90
99
99
73
156
173
103
120
140
90
123
132
88
125
149
91
116
116
82
125
149
80
116
110
82
116
124
85
114
132
79
124
124
85
114
149
80
130
140
90
116
102
82
119
140
79
120
140
90
124
124
93
107
107
77
58
149
149
54
124
124
68
173
173
23
71
107
60
140
140
59
181
181
59
165
165
18
50
91
62
124
124
53
132
132
51
157
157
27
81
116
70
190
190
61
132
132
66
157
157
109
124
85
99
99
99
125
149
80
29
39
58
99
99
83
125
149
91
67
83
99
75
69
62
101
107
77
21
26
42
58
53
48
83
79
67
55
67
83
114
132
79
114
149
80
15
24
33
29
52
66
4
6
9
22
38
50
41
73
91
8
13
17
8
10
17
19
32
42
24
41
58
11
18
25
47
89
107
34
58
75
11
16
25
18
28
42
4
6
9
54
93
124
41
73
99
80
114
149
41
77
107
90
119
165
69
109
140
48
82
116
61
96
132
48
89
116
41
67
99
36
73
99
54
85
124
61
105
132
47
89
107
78
104
157
116
124
85
58
51
51
129
157
91
91
82
68
50
48
50
119
140
79
136
165
90
66
55
49
99
99
73
139
173
86
114
132
79
58
50
48
110
116
82
136
149
91
75
65
55
40
49
66
99
89
78
15
21
33
40
64
83
91
91
87
22
36
50
12
16
25
116
95
82
59
89
107
18
28
42
29
46
66
91
77
73
71
75
83
11
16
25
41
46
58
10
24
50
9
46
91
6
12
25
6
29
66
17
65
107
6
17
42
7
12
25
8
17
33
10
41
75
4
20
50
15
62
99
5
18
42
10
17
33
3
8
17
5
24
58
105
134
165
35
77
107
129
157
91
36
63
91
44
88
132
142
181
100
125
149
91
136
165
90
46
92
124
50
111
140
31
55
75
36
68
99
141
190
94
41
82
116
114
132
79
17
17
16
99
99
78
0
0
0
66
66
60
95
107
71
79
83
67
40
42
42
9
9
9
66
63
63
16
17
16
51
58
51
88
116
95
50
48
50
87
91
73
79
83
71
103
116
116
125
149
91
15
22
33
83
75
71
8
11
17
29
46
58
101
107
77
91
87
73
125
149
80
55
67
83
109
124
78
58
53
48
15
26
33
8
13
17
43
52
66
