P3
# Created by GIMP version 2.10.14 PNM plug-in
15 17
255
67
40
4
79
48
6
73
44
5
48
28
3
77
47
6
63
37
4
80
48
6
46
26
3
73
44
5
82
49
6
48
28
3
0
0
0
0
0
0
0
0
0
0
0
0
148
131
164
255
255
255
46
26
3
0
0
8
89
54
7
197
189
205
116
70
9
73
44
5
230
230
230
164
156
172
67
40
4
8
8
8
57
57
57
90
90
90
79
48
6
119
71
7
80
48
6
153
106
43
130
77
8
134
92
38
97
58
6
171
118
48
148
88
9
67
40
4
129
89
36
83
49
5
117
70
7
149
103
42
142
98
40
122
84
34
126
82
32
126
75
32
120
75
32
132
82
25
120
82
32
120
75
38
126
82
25
132
75
25
126
75
38
126
75
25
126
82
38
120
82
38
120
75
44
120
82
25
132
82
32
67
29
51
86
37
65
48
20
36
107
46
81
78
33
59
91
39
69
59
25
44
69
30
52
46
20
35
85
36
64
50
21
37
82
35
62
115
50
87
57
24
43
99
43
75
67
40
4
105
63
8
46
26
3
79
48
6
121
73
9
38
22
2
77
47
6
96
58
7
63
37
4
57
33
3
73
44
5
87
52
6
131
79
10
44
25
2
89
54
7
96
58
7
79
48
6
112
67
8
67
40
4
118
71
9
105
63
8
89
54
7
103
62
8
73
44
5
87
52
6
125
75
9
80
48
6
89
54
7
111
67
8
121
73
9
59
25
44
78
33
59
46
20
35
99
43
75
68
29
51
37
16
28
48
20
36
121
52
92
85
36
64
69
30
52
50
21
37
91
39
69
35
15
27
76
33
57
57
24
43
84
50
5
137
82
8
67
40
4
142
98
40
116
69
7
79
48
6
119
71
7
142
84
9
97
58
6
161
111
45
156
93
9
130
77
8
128
89
36
89
54
7
73
44
5
147
101
41
115
79
32
167
115
47
128
88
36
99
69
28
155
107
44
176
121
49
135
93
38
126
87
36
148
102
42
86
59
24
113
78
32
158
109
45
145
100
41
172
119
49
66
29
21
78
34
25
58
25
19
72
31
23
51
22
17
59
26
19
71
31
23
65
28
21
67
29
22
82
36
26
73
32
24
70
30
22
61
26
20
69
30
22
57
25
18
105
63
8
168
100
10
63
37
4
152
92
11
178
106
11
80
48
6
46
26
3
146
87
9
131
79
10
38
23
2
89
54
7
162
96
10
114
69
8
77
47
6
169
102
12
141
98
40
120
71
7
156
108
44
112
77
31
138
82
8
133
92
38
169
116
48
104
62
6
97
67
27
145
100
41
124
86
35
133
79
8
140
97
39
158
109
45
154
106
43
205
148
41
164
98
16
230
172
57
189
123
16
148
82
24
213
156
32
230
180
65
222
164
57
180
106
24
205
139
16
156
82
24
213
148
24
222
172
65
238
172
41
197
131
16
69
57
44
114
69
38
63
37
4
126
88
50
95
63
32
38
22
2
79
48
6
46
26
3
101
63
38
88
50
32
139
95
57
120
82
44
30
17
2
107
69
38
89
54
7
230
222
238
123
123
156
255
255
255
172
172
189
115
98
148
148
139
172
213
205
205
246
246
246
180
189
189
238
230
238
197
172
197
139
106
131
197
205
197
139
131
164
156
148
172
111
66
7
79
48
6
152
105
43
141
84
9
171
118
48
127
88
36
97
58
6
122
73
7
67
40
4
128
89
36
78
46
5
156
93
9
137
95
39
155
107
44
142
98
40
