P3
# Created by GIMP version 2.10.18 PNM plug-in
15 17
255
160
106
144
158
105
142
160
106
144
153
102
138
159
106
143
152
101
137
166
110
149
154
102
139
168
111
151
166
110
149
161
107
145
0
0
0
0
0
0
0
0
0
0
0
0
164
164
164
255
255
255
154
102
139
8
8
8
164
109
148
205
205
205
182
121
164
160
106
144
230
230
230
172
172
172
160
106
144
8
8
8
110
73
99
134
89
121
158
105
142
195
157
183
166
110
149
230
224
228
207
167
195
205
199
203
195
157
183
238
231
236
206
166
194
160
106
144
180
175
179
182
147
171
204
165
192
205
199
203
222
216
220
197
192
195
156
93
136
157
94
138
152
91
133
162
97
142
150
90
132
152
91
133
156
93
136
163
97
143
156
93
137
157
94
138
156
93
136
150
90
132
152
91
133
150
90
132
162
97
142
115
112
114
139
135
138
90
87
89
156
152
155
131
127
130
139
135
138
106
103
105
123
120
122
82
80
81
131
127
130
98
95
97
131
127
130
164
159
163
98
95
97
148
144
147
160
106
144
177
117
159
146
97
131
158
105
142
190
126
171
133
88
120
159
106
143
171
113
154
152
101
137
144
96
130
160
106
144
164
109
148
196
130
176
138
92
124
164
109
148
171
113
154
158
105
142
184
122
166
160
106
144
182
121
164
177
117
159
172
114
155
177
117
159
160
106
144
164
109
148
180
119
162
166
110
149
164
109
148
175
116
157
190
126
171
106
103
105
131
127
130
82
80
81
148
144
147
115
112
114
74
72
73
90
87
89
164
159
163
131
127
130
123
120
122
98
95
97
139
135
138
65
63
64
123
120
122
98
95
97
182
147
171
186
150
175
160
106
144
197
192
195
196
158
184
158
105
142
195
157
183
210
170
197
195
157
183
213
207
211
222
179
209
207
167
195
172
167
171
172
114
155
160
106
144
222
216
220
189
184
187
246
239
244
205
199
203
164
159
163
238
231
236
238
231
236
213
207
211
197
192
195
230
224
228
148
144
147
180
175
179
230
224
228
213
207
211
246
239
244
134
80
118
150
90
132
118
70
103
146
87
128
107
63
94
125
74
109
139
83
122
128
76
112
140
84
123
149
89
130
152
91
133
133
79
116
130
77
114
147
87
128
112
66
98
177
117
159
216
174
203
152
101
137
198
131
178
221
179
208
166
110
149
146
97
131
219
177
206
196
130
176
140
93
126
172
114
155
219
177
206
183
121
165
159
106
143
211
140
190
189
184
187
194
157
182
222
216
220
172
167
171
194
157
182
205
199
203
230
224
228
183
148
172
148
144
147
213
207
211
189
184
187
196
158
184
172
167
171
230
224
228
197
192
195
205
199
203
164
159
163
230
224
228
189
184
187
148
144
147
213
207
211
230
224
228
222
216
220
180
175
179
205
199
203
156
152
155
213
207
211
222
216
220
238
231
236
197
192
195
107
63
94
147
88
129
152
101
137
154
92
135
130
77
114
133
88
120
158
105
142
146
97
131
136
81
119
128
76
112
164
98
144
150
90
132
125
83
113
140
84
123
172
114
155
238
231
236
156
152
155
255
248
253
189
184
187
148
144
147
172
167
171
213
207
211
246
239
244
189
184
187
238
231
236
197
192
195
139
135
138
205
199
203
164
159
163
172
167
171
180
145
169
158
105
142
222
216
220
202
163
190
238
231
236
197
192
195
195
157
183
201
162
189
160
106
144
172
167
171
184
149
173
222
179
209
222
216
220
238
231
236
189
184
187
