P3
# Created by GIMP version 2.10.18 PNM plug-in
15 17
255
106
25
25
106
25
25
106
25
25
98
23
23
106
25
25
98
23
23
115
27
27
98
23
23
115
27
27
115
27
27
106
25
25
0
0
0
0
0
0
0
0
0
0
0
0
164
164
164
255
255
255
98
23
23
8
8
8
115
27
27
205
205
205
139
33
33
106
25
25
230
230
230
172
172
172
106
25
25
8
8
8
57
14
14
90
21
21
106
25
25
156
82
82
115
27
27
230
214
169
172
91
91
205
190
150
148
78
78
238
221
175
180
95
95
106
25
25
180
167
132
131
69
69
164
87
87
205
190
150
222
206
163
197
183
145
73
14
14
73
14
14
69
13
13
77
15
15
69
13
13
69
13
13
73
14
14
77
15
15
73
14
14
73
14
14
73
14
14
69
13
13
69
13
13
69
13
13
77
15
15
115
107
84
139
129
102
90
84
66
156
145
115
131
122
96
139
129
102
106
98
78
123
114
90
82
76
60
131
122
96
98
91
72
131
122
96
164
152
120
98
91
72
148
137
109
106
25
25
131
31
31
90
21
21
106
25
25
148
35
35
74
18
18
106
25
25
123
29
29
98
23
23
90
21
21
106
25
25
115
27
27
156
37
37
82
19
19
115
27
27
123
29
29
106
25
25
139
33
33
106
25
25
139
33
33
131
31
31
123
29
29
131
31
31
106
25
25
115
27
27
139
33
33
115
27
27
115
27
27
131
31
31
148
35
35
106
98
78
131
122
96
82
76
60
148
137
109
115
107
84
74
69
54
90
84
66
164
152
120
131
122
96
123
114
90
98
91
72
139
129
102
65
60
48
123
114
90
98
91
72
131
69
69
156
82
82
106
25
25
197
183
145
156
82
82
106
25
25
156
82
82
180
95
95
148
78
78
213
198
156
197
104
104
172
91
91
172
160
126
123
29
29
106
25
25
222
206
163
189
176
139
246
228
181
205
190
150
164
152
120
238
221
175
238
221
175
213
198
156
197
183
145
230
214
169
148
137
109
180
167
132
230
214
169
213
198
156
246
228
181
57
10
10
69
13
13
45
7
7
65
12
12
37
5
5
49
8
8
61
11
11
53
9
9
61
11
11
69
13
13
69
13
13
57
10
10
53
9
9
65
12
12
41
6
6
131
31
31
197
104
104
98
23
23
164
39
39
205
108
108
115
27
27
90
21
21
189
100
100
156
37
37
82
19
19
123
29
29
197
104
104
139
33
33
106
25
25
180
43
43
189
176
139
156
82
82
222
206
163
172
160
126
164
87
87
205
190
150
230
214
169
139
73
73
148
137
109
213
198
156
189
176
139
164
87
87
172
160
126
230
214
169
197
183
145
205
190
150
164
152
120
230
214
169
189
176
139
148
137
109
213
198
156
230
214
169
222
206
163
180
167
132
205
190
150
156
145
115
213
198
156
222
206
163
238
221
175
197
183
145
37
5
5
65
12
12
98
23
23
73
14
14
53
9
9
74
18
18
106
25
25
90
21
21
57
10
10
49
8
8
81
16
16
69
13
13
65
15
15
61
11
11
123
29
29
238
221
175
156
145
115
255
237
187
189
176
139
148
137
109
172
160
126
213
198
156
246
228
181
189
176
139
238
221
175
197
183
145
139
129
102
205
190
150
164
152
120
172
160
126
139
73
73
106
25
25
222
206
163
172
91
91
238
221
175
197
183
145
148
78
78
164
87
87
106
25
25
172
160
126
131
69
69
197
104
104
222
206
163
238
221
175
189
176
139
