P3
# Created by GIMP version 2.10.14 PNM plug-in
15 17
255
106
79
21
119
89
24
109
81
22
96
71
19
116
86
23
106
79
21
120
89
24
93
69
18
110
82
22
123
91
24
97
72
19
0
0
0
0
0
0
0
0
0
0
0
0
148
131
164
255
255
255
93
69
18
0
0
8
134
99
26
197
189
205
174
130
34
109
81
22
230
230
230
164
156
172
106
79
21
8
8
8
57
57
57
90
90
90
119
89
24
182
107
61
120
89
24
230
172
106
193
118
70
205
148
98
148
87
49
238
197
115
203
139
99
106
79
21
180
148
106
127
75
42
179
105
60
205
172
106
222
156
98
197
131
90
164
106
41
164
98
41
156
98
41
172
106
32
156
106
41
156
98
49
164
106
32
172
98
32
164
98
49
164
98
32
164
106
49
156
106
49
156
98
57
156
106
32
172
106
41
48
16
12
59
24
24
36
8
8
67
36
8
55
20
20
59
28
8
43
12
12
51
16
16
32
8
8
55
24
24
39
8
8
55
24
8
71
39
8
39
12
12
63
32
8
106
79
21
157
117
31
92
68
18
119
89
24
181
135
36
78
58
15
116
86
23
144
107
28
106
79
21
102
76
20
109
81
22
131
97
26
196
146
39
88
66
17
134
99
26
144
107
28
119
89
24
168
125
33
106
79
21
177
132
35
157
117
31
134
100
27
154
115
31
109
81
22
131
97
26
188
140
37
120
89
24
134
99
26
167
124
33
181
135
36
43
12
12
55
20
20
32
8
8
63
32
8
48
16
16
28
5
5
36
8
8
71
43
8
55
24
24
51
16
16
39
8
8
59
28
8
24
5
5
51
20
20
39
12
12
129
76
43
197
126
82
106
79
21
197
164
98
178
105
59
119
89
24
181
107
60
200
132
89
148
87
49
213
189
106
207
148
111
193
118
70
172
148
115
134
100
27
109
81
22
222
164
98
189
123
82
246
189
106
205
139
90
164
106
74
238
172
106
238
205
115
213
148
98
197
139
82
230
164
98
148
90
65
180
123
82
230
180
98
213
164
90
246
197
115
32
19
9
40
24
11
24
17
9
38
22
9
19
14
7
27
17
9
35
22
9
30
19
9
35
19
9
40
27
11
40
22
9
32
22
9
30
17
9
38
19
11
22
17
7
157
117
31
213
162
130
106
79
21
216
166
58
218
173
145
120
89
24
92
68
18
202
136
95
196
146
39
79
58
16
134
100
27
210
154
119
171
127
34
116
86
23
221
177
83
189
164
115
183
108
61
222
180
98
172
123
82
198
127
83
205
148
90
230
197
106
159
94
53
148
106
82
213
164
90
189
139
82
195
121
75
172
164
148
230
180
98
197
180
139
255
172
17
212
118
0
255
188
54
235
145
0
205
96
0
255
180
16
255
196
61
255
182
47
234
123
0
249
162
0
212
93
0
255
170
9
255
191
54
255
185
47
242
154
0
90
74
57
148
90
49
106
79
21
164
115
65
123
82
41
78
58
15
119
89
24
92
68
18
131
82
49
115
65
41
180
123
74
156
106
57
63
47
12
139
90
49
134
100
27
230
222
238
123
123
156
255
255
255
172
172
189
115
98
148
148
139
172
213
205
205
246
246
246
180
189
189
238
230
238
197
172
197
139
106
131
197
205
197
139
131
164
156
148
172
170
100
57
119
89
24
222
172
98
200
131
89
238
197
115
197
139
98
148
87
49
186
110
62
106
79
21
172
148
115
119
70
40
207
148
111
222
148
98
238
172
106
189
164
123
